# xmcd
#
# Track frame offsets: 
#        165
#        20419
#        35685
#        50174
#        76125
#        83954
#        104256
#        118958
#        142867
#        164812
#        187157
#        201810
#        218331
#
# Disc length: 3373 seconds
#
# Revision: 3
# Processed by: cddbd v1.5.2PL0 Copyright (c) Steve Scherf et al.
# Submitted via: ExactAudioCopy v1.3
#
DISCID=b80d2b0d
DTITLE=Childish Gambino - Camp
DYEAR=2011
DGENRE=Hip-Hop
TTITLE0=Outside
TTITLE1=Fire Fly
TTITLE2=Bonfire
TTITLE3=All the Shine
TTITLE4=Letter Home
TTITLE5=Heartbeat
TTITLE6=Backpackers
TTITLE7=L.E.S.
TTITLE8=Hold You Down
TTITLE9=Kids (Keep Up)
TTITLE10=You See Me
TTITLE11=Sunrise
TTITLE12=That Power
EXTD=
EXTT0=
EXTT1=
EXTT2=
EXTT3=
EXTT4=
EXTT5=
EXTT6=
EXTT7=
EXTT8=
EXTT9=
EXTT10=
EXTT11=
EXTT12=
PLAYORDER=
